<svg width="418" height="438" viewBox="0 0 418 438" fill="none" xmlns="http://www.w3.org/2000/svg">
<path d="M238.57 14.5199L231.31 28.1199L214.78 18.2299L222.35 4.93991L215.63 0.919922L130.8 148.24L139.57 148.52L149.42 131.48L165.33 140.9L161.62 148.01L170.12 148.32L245.21 17.9199L238.57 14.5199ZM171.2 131.95L154.98 122.37L163.79 106.3L180.63 115.88L171.21 131.95H171.2ZM184.95 106.61L169.34 97.0299L179.07 80.3399L195.76 90.2299L184.94 106.61H184.95ZM200.87 80.3399L184.65 70.9199L194.07 54.2299L210.29 63.6499L200.87 80.3399ZM215.08 54.2299L199.17 44.3399L209.21 27.8099L225.43 37.2299L215.08 54.2299Z" fill="white"/>
<path d="M355.46 81.6399L346.93 95.2299L331.76 85.4299L338.87 72.7899L331.44 68.3699L286.57 148.16L325.12 149.11L362.09 85.2799L355.45 81.6499L355.46 81.6399ZM317.86 147.05L300.95 138.04L310.59 121.45L326.86 130.77L317.85 147.04L317.86 147.05ZM332.71 121.77L315.8 111.5L325.75 95.0699L341.87 104.87L332.71 121.78V121.77Z" fill="white"/>
<path d="M258.97 25.8899L318.68 60.6699L293.82 103.15C291.62 106.9 286.8 108.16 283.05 105.97L237 78.9999C233.25 76.7999 231.99 71.9799 234.19 68.2299L258.97 25.8899Z" fill="white"/>
<path d="M226.79 95.5898L273.85 122.44C277.26 124.38 278.52 128.67 276.7 132.15L267.92 148.98H187.54L216.85 98.2698C218.86 94.7998 223.3 93.5998 226.78 95.5798L226.79 95.5898Z" fill="white"/>
<path d="M81.3598 239.97H69.2498V277.07H35.8398V155.82H88.3899C114.53 155.82 133.48 173.38 133.48 198.73C133.48 213.61 126.21 225.8 114.23 232.97L138.31 277.07H101.03L81.3598 239.97ZM69.2498 211.83H84.5099C93.8499 211.83 99.2198 206.21 99.2198 198.63C99.2198 191.05 93.8399 185.5 84.5099 185.5H69.2498V211.83Z" fill="white"/>
<path d="M236.25 229.42C236.25 232.24 236 235.06 235.59 237.95H166.13C168.24 248.68 175.05 254.23 185.23 254.23C192.76 254.23 199.04 250.93 202.14 245.46H234.2C227.62 266.81 208.69 280.15 185.23 280.15C156.04 280.15 134.42 258.82 134.42 230.24C134.42 201.66 155.87 180.48 185.23 180.48C214.59 180.48 236.26 201.99 236.26 229.43L236.25 229.42ZM166.7 220.11H204.51C201.68 210.76 194.95 205.72 185.22 205.72C175.49 205.72 169.3 210.82 166.69 220.11H166.7Z" fill="white"/>
<path d="M343.82 229.42C343.82 232.24 343.57 235.06 343.16 237.95H273.7C275.81 248.68 282.62 254.23 292.8 254.23C300.33 254.23 306.61 250.93 309.71 245.46H341.77C335.19 266.81 316.26 280.15 292.8 280.15C263.61 280.15 241.99 258.82 241.99 230.24C241.99 201.66 263.44 180.48 292.8 180.48C322.16 180.48 343.83 201.99 343.83 229.43L343.82 229.42ZM274.27 220.11H312.08C309.25 210.76 302.52 205.72 292.79 205.72C283.06 205.72 276.87 210.82 274.26 220.11H274.27Z" fill="white"/>
<path d="M350.05 149.75H382.27V277.07H350.05V149.75Z" fill="white"/>
<path d="M201.6 308.27V400.62H177.01L174.29 394.09C166.73 400.22 157.15 403.75 146.42 403.75C118.18 403.75 98 383.15 98 354.45C98 325.75 118.18 305.49 146.42 305.49C157.3 305.49 167.01 309.12 174.64 315.41L177.89 308.27H201.6ZM171.35 354.52C171.35 342.53 162.59 333.53 150.68 333.53C138.77 333.53 130.01 342.53 130.01 354.52C130.01 366.51 138.77 375.58 150.68 375.58C162.59 375.58 171.35 366.58 171.35 354.52Z" fill="white"/>
<path d="M308.24 308.37V390.46C308.24 419.48 289.24 437.46 258.74 437.46C232.53 437.46 214.19 424.25 209.94 402.36H240.64C242.84 408.53 250.72 411.86 258.45 411.86C269.11 411.86 277.68 405.09 277.68 394.11V391.35C270.74 395.76 262.5 398.28 253.58 398.28C227.1 398.28 207.43 378.58 207.43 351.86C207.43 325.14 227.1 305.42 253.58 305.42C264.76 305.42 274.88 309.43 282.71 316.12L286.74 308.37H308.25H308.24ZM258.85 372.09C270.27 372.09 278.49 363.63 278.49 351.86C278.49 340.09 270.3 331.73 258.85 331.73C247.4 331.73 239.14 340.19 239.14 351.86C239.14 363.53 247.33 372.09 258.85 372.09Z" fill="white"/>
<path d="M417.72 308.27V400.62H393.13L390.41 394.09C382.85 400.22 373.27 403.75 362.54 403.75C334.3 403.75 314.12 383.15 314.12 354.45C314.12 325.75 334.3 305.49 362.54 305.49C373.42 305.49 383.13 309.12 390.76 315.41L394.01 308.27H417.72ZM387.47 354.52C387.47 342.53 378.71 333.53 366.8 333.53C354.89 333.53 346.13 342.53 346.13 354.52C346.13 366.51 354.89 375.58 366.8 375.58C378.71 375.58 387.47 366.58 387.47 354.52Z" fill="white"/>
<path d="M46.8499 408.39C18.1599 408.39 0.719883 393.24 0.379883 370.43H35.2799C35.2799 378.13 40.6399 381.67 47.5199 381.67C52.8199 381.67 57.8499 378.96 57.8499 373.52C57.8499 367.45 49.8799 365.72 39.7699 364.04C23.4499 361.39 1.80988 356.47 1.80988 330.93C1.80988 309.83 19.7899 296.2 46.7699 296.2C73.7499 296.2 90.9499 310.46 91.3699 331.8H57.4099C57.4099 325.08 52.8899 321.95 46.3199 321.95C40.5099 321.95 36.5999 324.83 36.5999 329.71C36.5999 335.7 44.6499 337.1 54.6499 338.88C71.2799 341.83 93.3899 345.29 93.3899 371.99C93.3899 393.99 74.8199 408.39 46.8399 408.39H46.8499Z" fill="white"/>
</svg>
