<svg width="81" height="110" viewBox="0 0 81 110" fill="none" xmlns="http://www.w3.org/2000/svg">
<path d="M37.3323 4.65721L34.8459 9.3125L29.1846 5.92718L31.7762 1.37708L29.4753 0L0.428467 50.4451L3.42935 50.5426L6.8032 44.7092L12.2522 47.9358L10.9823 50.3686L13.8913 50.4738L39.6064 5.82008L37.3323 4.65529V4.65721ZM14.2643 44.866L8.70816 41.5859L11.7243 36.0833L17.4909 39.3634L14.2643 44.866ZM18.9731 36.1885L13.6293 32.9084L16.963 27.1935L22.6779 30.5788L18.9751 36.1866L18.9731 36.1885ZM24.4222 27.1954L18.866 23.9688L22.0926 18.254L27.6487 21.4805L24.4222 27.1954ZM29.2898 18.254L23.8407 14.8686L27.2796 9.20731L32.8357 12.4339L29.2917 18.254H29.2898Z" fill="url(#paint0_linear_41_70)"/>
<path d="M77.3612 27.6391L74.4407 32.2925L69.246 28.9378L71.6808 24.6095L69.1389 23.0947L53.7749 50.4164L66.9757 50.7415L79.6353 28.8842L77.3631 27.6391H77.3612ZM64.4855 50.0377L58.6961 46.9545L61.9953 41.2741L67.5687 44.4662L64.4855 50.0396V50.0377ZM69.5712 41.3812L63.7817 37.8639L67.19 32.237L72.7078 35.5917L69.5692 41.3812H69.5712Z" fill="url(#paint1_linear_41_70)"/>
<path d="M44.3192 8.55127L64.765 20.4592L56.2501 35.0065C55.4984 36.2918 53.8478 36.7221 52.5625 35.9705L36.795 26.7364C35.5116 25.9847 35.0794 24.3341 35.831 23.0508L44.3173 8.55127H44.3192Z" fill="url(#paint2_linear_41_70)"/>
<path d="M33.3006 32.417L49.4162 41.6128C50.5829 42.2784 51.0132 43.7473 50.3936 44.9369L47.3888 50.7015H19.8625L29.8999 33.3369C30.5885 32.1473 32.1071 31.7361 33.3006 32.417Z" fill="url(#paint3_linear_41_70)"/>
<path d="M13.7823 91.9107C12.4932 91.1762 10.965 90.7822 9.62043 90.436C7.66574 89.9445 6.10123 89.5543 6.10123 88.3761C6.10123 87.4065 7.08048 86.9666 8.09991 86.9666C9.28573 86.9666 10.265 87.5824 10.265 88.8945H14.4287C14.7424 88.051 15.1574 87.2726 15.6643 86.5726C14.7749 83.7534 12.1527 82.1143 8.16876 82.1143C3.27248 82.1143 0.269678 84.4572 0.269678 88.5445C0.269678 93.2705 4.10064 94.1905 7.10152 94.9364C9.07725 95.4146 10.6934 95.7933 10.6934 97.0957C10.6934 98.2299 9.54967 98.8668 8.35046 98.8668C7.04606 98.8668 5.90232 98.1458 5.90232 96.6616H0C0 101.187 3.28395 103.874 8.36576 103.874C12.1087 103.874 15.0446 102.455 16.1711 99.6988C14.6391 97.9239 13.7478 95.5389 13.7478 92.7962C13.7478 92.4959 13.7612 92.2014 13.7823 91.9107Z" fill="url(#paint4_linear_41_70)"/>
<path d="M37.3743 86.1517V83.2273H32.4608L31.7856 84.7077C30.2058 83.4033 28.1918 82.6516 25.9388 82.6516C22.4712 82.6516 19.5908 84.132 17.8178 86.5725C17.311 87.2706 16.896 88.049 16.5823 88.8944C16.2361 89.8258 16.0162 90.8357 15.9377 91.9125C15.9167 92.2032 15.9033 92.4977 15.9033 92.798C15.9033 95.5407 16.7946 97.9257 18.3266 99.7006C20.1168 101.774 22.7849 103.015 25.9369 103.015C28.1593 103.015 30.1446 102.283 31.711 101.015L32.2753 102.369H37.3705V98.4039C36.068 96.7686 35.3087 94.6513 35.3087 92.2644C35.3087 89.8775 36.068 87.8004 37.3705 86.1574L37.3743 86.1517ZM26.8205 97.176C24.3513 97.176 22.5363 95.3112 22.5363 92.8114C22.5363 90.3116 24.336 88.4621 26.8205 88.4621C29.305 88.4621 31.1048 90.3269 31.1048 92.8114C31.1048 95.2959 29.2897 97.176 26.8205 97.176Z" fill="url(#paint5_linear_41_70)"/>
<path d="M58.4686 86.163V83.2482H54.0122L53.1764 84.8529C51.5545 83.4663 49.4563 82.6343 47.1402 82.6343C44.0188 82.6343 41.3564 83.9846 39.637 86.1516C38.3345 87.7945 37.5752 89.906 37.5752 92.2585C37.5752 94.611 38.3345 96.7627 39.637 98.398C41.3545 100.555 44.0188 101.879 47.1402 101.879C48.9877 101.879 50.6957 101.355 52.134 100.443V101.014C52.134 103.29 50.3591 104.694 48.15 104.694C46.5492 104.694 44.9158 104.006 44.4587 102.726H38.0973C38.9791 107.261 42.7794 110 48.2112 110C54.5324 110 58.4705 106.274 58.4705 100.261V99.4672C57.057 97.719 56.2404 95.422 56.2404 92.796C56.2404 90.17 57.057 87.8978 58.4705 86.163H58.4686ZM48.2342 96.451C45.8472 96.451 44.1488 94.6971 44.1488 92.2585C44.1488 89.82 45.8683 88.0871 48.2342 88.0871C50.6001 88.0871 52.3042 89.841 52.3042 92.2585C52.3042 94.6761 50.6001 96.451 48.2342 96.451Z" fill="url(#paint6_linear_41_70)"/>
<path d="M75.0584 83.2273L74.3833 84.7077C72.8035 83.4033 70.7895 82.6516 68.5364 82.6516C65.2678 82.6516 62.5194 83.9694 60.7311 86.1651C59.3177 87.8998 58.501 90.1816 58.501 92.798C58.501 95.4145 59.3177 97.7211 60.7311 99.4692C62.5194 101.682 65.2678 103.015 68.5364 103.015C70.7589 103.015 72.7442 102.283 74.3106 101.015L74.8748 102.369H79.97V83.2311H75.0565L75.0584 83.2273ZM69.4182 97.176C66.949 97.176 65.1339 95.3112 65.1339 92.8114C65.1339 90.3116 66.9337 88.4621 69.4182 88.4621C71.9026 88.4621 73.7024 90.3269 73.7024 92.8114C73.7024 95.2959 71.8873 97.176 69.4182 97.176Z" fill="url(#paint7_linear_41_70)"/>
<path d="M73.1592 52.2849H80.0618V79.006H73.1592V52.2849Z" fill="url(#paint8_linear_41_70)"/>
<path d="M46.8418 73.8977C48.9897 77.5527 52.987 79.8956 57.8164 79.8956C63.6747 79.8956 68.3988 76.5657 70.0418 71.2372H62.0375C61.2648 72.6047 59.6945 73.4272 57.8164 73.4272C55.2764 73.4272 53.5761 72.0424 53.0501 69.3648H70.5716C70.6768 68.6418 70.738 67.9399 70.738 67.236C70.738 60.387 65.3444 55.0164 57.8164 55.0164C52.9698 55.0164 48.9897 57.3191 46.8475 60.9474C47.9262 62.7739 48.5249 64.9199 48.5249 67.2341C48.5249 67.938 48.4637 68.6418 48.3585 69.3648C48.3585 69.3648 48.1997 70.3096 47.8803 71.3405C47.5609 72.3714 47.0828 73.4903 46.8418 73.8996V73.8977ZM53.1936 64.9084C53.8439 62.5884 55.4734 61.3146 57.8183 61.3146C60.1631 61.3146 61.9285 62.5731 62.6323 64.9084H53.1936Z" fill="url(#paint9_linear_41_70)"/>
<path d="M42.9877 71.235H37.3149C36.5422 72.6025 34.9719 73.425 33.0937 73.425C30.5538 73.425 28.8535 72.0402 28.3275 69.3626H45.6672C45.7724 68.6396 45.8336 67.9377 45.8336 67.2338C45.8336 64.9177 45.2369 62.7736 44.1563 60.9452C42.0428 57.3667 38.0761 55.0142 33.0937 55.0142C28.9434 55.0142 25.4261 56.703 23.1577 59.4686C23.8654 60.6774 24.267 62.0545 24.267 63.5119C24.267 66.4286 23.2266 69.2191 20.9678 70.5733C22.1268 76.334 26.7458 79.8953 33.0956 79.8953C37.9059 79.8953 41.9491 77.6499 44.1524 73.8974C44.6325 73.0788 45.0284 72.1894 45.321 71.235H42.9896H42.9877ZM33.0937 61.3143C35.5208 61.3143 37.2039 62.5728 37.9078 64.9081H28.469C29.1193 62.5881 30.7489 61.3143 33.0937 61.3143Z" fill="url(#paint10_linear_41_70)"/>
<path d="M21.6585 63.5103C21.6585 62.0529 21.2569 60.6758 20.5492 59.4671C18.9732 56.776 15.8748 54.9265 12.2848 54.9265H0.120605V79.6948H6.76693V71.4419H7.7634L15.0122 79.6948H22.8788L15.3431 71.155C16.3548 70.9293 17.2672 70.5698 18.0647 70.0916C20.3235 68.7375 21.6585 66.429 21.6585 63.5122V63.5103ZM11.6403 66.4882H6.76693V60.7102H11.6403C13.7575 60.7102 15.1212 61.8578 15.1212 63.5811C15.1212 65.3043 13.7575 66.4882 11.6403 66.4882Z" fill="url(#paint11_linear_41_70)"/>
<defs>
<linearGradient id="paint0_linear_41_70" x1="20.0174" y1="0" x2="20.0174" y2="50.5426" gradientUnits="userSpaceOnUse">
<stop stop-color="white"/>
<stop offset="1" stop-color="#999999"/>
</linearGradient>
<linearGradient id="paint1_linear_41_70" x1="66.7051" y1="23.0947" x2="66.7051" y2="50.7415" gradientUnits="userSpaceOnUse">
<stop stop-color="white"/>
<stop offset="1" stop-color="#999999"/>
</linearGradient>
<linearGradient id="paint2_linear_41_70" x1="50.1133" y1="8.55127" x2="50.1133" y2="36.3402" gradientUnits="userSpaceOnUse">
<stop stop-color="white"/>
<stop offset="1" stop-color="#999999"/>
</linearGradient>
<linearGradient id="paint3_linear_41_70" x1="35.2695" y1="32.0884" x2="35.2695" y2="50.7015" gradientUnits="userSpaceOnUse">
<stop stop-color="white"/>
<stop offset="1" stop-color="#999999"/>
</linearGradient>
<linearGradient id="paint4_linear_41_70" x1="8.08556" y1="82.1143" x2="8.08556" y2="103.874" gradientUnits="userSpaceOnUse">
<stop stop-color="white"/>
<stop offset="1" stop-color="#999999"/>
</linearGradient>
<linearGradient id="paint5_linear_41_70" x1="26.6388" y1="82.6516" x2="26.6388" y2="103.015" gradientUnits="userSpaceOnUse">
<stop stop-color="white"/>
<stop offset="1" stop-color="#999999"/>
</linearGradient>
<linearGradient id="paint6_linear_41_70" x1="48.0228" y1="82.6343" x2="48.0228" y2="110" gradientUnits="userSpaceOnUse">
<stop stop-color="white"/>
<stop offset="1" stop-color="#999999"/>
</linearGradient>
<linearGradient id="paint7_linear_41_70" x1="69.2355" y1="82.6516" x2="69.2355" y2="103.015" gradientUnits="userSpaceOnUse">
<stop stop-color="white"/>
<stop offset="1" stop-color="#999999"/>
</linearGradient>
<linearGradient id="paint8_linear_41_70" x1="76.6105" y1="52.2849" x2="76.6105" y2="79.006" gradientUnits="userSpaceOnUse">
<stop stop-color="white"/>
<stop offset="1" stop-color="#999999"/>
</linearGradient>
<linearGradient id="paint9_linear_41_70" x1="58.7899" y1="55.0164" x2="58.7899" y2="79.8956" gradientUnits="userSpaceOnUse">
<stop stop-color="white"/>
<stop offset="1" stop-color="#999999"/>
</linearGradient>
<linearGradient id="paint10_linear_41_70" x1="33.4007" y1="55.0142" x2="33.4007" y2="79.8953" gradientUnits="userSpaceOnUse">
<stop stop-color="white"/>
<stop offset="1" stop-color="#999999"/>
</linearGradient>
<linearGradient id="paint11_linear_41_70" x1="11.4997" y1="54.9265" x2="11.4997" y2="79.6948" gradientUnits="userSpaceOnUse">
<stop stop-color="white"/>
<stop offset="1" stop-color="#999999"/>
</linearGradient>
</defs>
</svg>
